<svg width="705" height="175" viewBox="0 0 705 175" fill="none" xmlns="http://www.w3.org/2000/svg">
<path d="M53.3936 63.0488C52.6611 69.7871 50.2441 74.9434 46.1426 78.5176C42.0703 82.0918 36.6357 83.8789 29.8389 83.8789C25.0928 83.8789 20.8887 82.6924 17.2266 80.3193C13.5938 77.9463 10.7812 74.5918 8.78906 70.2559C6.79688 65.8906 5.78613 60.9102 5.75684 55.3145V47.0088C5.75684 41.3252 6.75293 36.2861 8.74512 31.8916C10.7373 27.4971 13.5938 24.1133 17.3145 21.7402C21.0645 19.3379 25.3711 18.1367 30.2344 18.1367C37.0898 18.1367 42.4951 19.9971 46.4502 23.7178C50.4346 27.4092 52.749 32.5215 53.3936 39.0547H47.9443C46.5967 28.1855 40.6934 22.751 30.2344 22.751C24.4336 22.751 19.8047 24.9189 16.3477 29.2549C12.9199 33.5908 11.2061 39.582 11.2061 47.2285V55.0508C11.2061 62.4336 12.876 68.3223 16.2158 72.7168C19.585 77.1113 24.126 79.3086 29.8389 79.3086C35.4932 79.3086 39.7559 77.9609 42.627 75.2656C45.498 72.541 47.2705 68.4688 47.9443 63.0488H53.3936ZM110.074 65.0703H81.0264L74.4346 83H68.7656L92.9795 19.0156H98.1211L122.335 83H116.71L110.074 65.0703ZM82.6963 60.4561H108.36L95.5283 25.6074L82.6963 60.4561ZM176.994 67.2676C176.994 63.7227 175.749 60.9248 173.259 58.874C170.769 56.7939 166.213 54.8311 159.592 52.9854C152.971 51.1104 148.137 49.0742 145.09 46.877C140.754 43.7715 138.586 39.6992 138.586 34.6602C138.586 29.7676 140.593 25.7979 144.606 22.751C148.649 19.6748 153.806 18.1367 160.075 18.1367C164.323 18.1367 168.117 18.957 171.457 20.5977C174.826 22.2383 177.434 24.5234 179.279 27.4531C181.125 30.3828 182.048 33.6494 182.048 37.2529H176.599C176.599 32.8877 175.104 29.3867 172.116 26.75C169.128 24.084 165.114 22.751 160.075 22.751C155.183 22.751 151.286 23.8496 148.386 26.0469C145.485 28.2148 144.035 31.0566 144.035 34.5723C144.035 37.8242 145.339 40.4756 147.946 42.5264C150.554 44.5771 154.729 46.3936 160.471 47.9756C166.213 49.5283 170.563 51.1543 173.522 52.8535C176.481 54.5234 178.708 56.5303 180.202 58.874C181.696 61.2178 182.443 63.9863 182.443 67.1797C182.443 72.2188 180.422 76.2617 176.379 79.3086C172.365 82.3555 167.062 83.8789 160.471 83.8789C155.959 83.8789 151.813 83.0732 148.034 81.4619C144.284 79.8506 141.428 77.5947 139.465 74.6943C137.531 71.7939 136.564 68.4688 136.564 64.7188H141.97C141.97 69.2305 143.654 72.79 147.023 75.3975C150.393 78.0049 154.875 79.3086 160.471 79.3086C165.451 79.3086 169.45 78.21 172.468 76.0127C175.485 73.8154 176.994 70.9004 176.994 67.2676ZM237.674 65.0703H208.626L202.034 83H196.365L220.579 19.0156H225.721L249.935 83H244.31L237.674 65.0703ZM210.296 60.4561H235.96L223.128 25.6074L210.296 60.4561ZM313.163 63.0488C312.431 69.7871 310.014 74.9434 305.912 78.5176C301.84 82.0918 296.405 83.8789 289.608 83.8789C284.862 83.8789 280.658 82.6924 276.996 80.3193C273.363 77.9463 270.551 74.5918 268.559 70.2559C266.566 65.8906 265.556 60.9102 265.526 55.3145V47.0088C265.526 41.3252 266.522 36.2861 268.515 31.8916C270.507 27.4971 273.363 24.1133 277.084 21.7402C280.834 19.3379 285.141 18.1367 290.004 18.1367C296.859 18.1367 302.265 19.9971 306.22 23.7178C310.204 27.4092 312.519 32.5215 313.163 39.0547H307.714C306.366 28.1855 300.463 22.751 290.004 22.751C284.203 22.751 279.574 24.9189 276.117 29.2549C272.689 33.5908 270.976 39.582 270.976 47.2285V55.0508C270.976 62.4336 272.646 68.3223 275.985 72.7168C279.354 77.1113 283.896 79.3086 289.608 79.3086C295.263 79.3086 299.525 77.9609 302.396 75.2656C305.268 72.541 307.04 68.4688 307.714 63.0488H313.163ZM359.209 56.3691H340.62V83H335.171V19.0156H355.957C362.783 19.0156 368.115 20.6709 371.953 23.9814C375.791 27.292 377.71 31.9209 377.71 37.8682C377.71 41.9697 376.509 45.5879 374.106 48.7227C371.704 51.8574 368.481 54.0254 364.438 55.2266L380.435 82.4287V83H374.678L359.209 56.3691ZM340.62 51.7549H357.188C361.729 51.7549 365.376 50.4658 368.13 47.8877C370.884 45.3096 372.261 41.9697 372.261 37.8682C372.261 33.3564 370.825 29.8555 367.954 27.3652C365.083 24.875 361.055 23.6299 355.869 23.6299H340.62V51.7549ZM408.023 83H402.618V19.0156H408.023V83ZM469.758 65.0703H440.71L434.118 83H428.449L452.663 19.0156H457.805L482.019 83H476.394L469.758 65.0703ZM442.38 60.4561H468.044L455.212 25.6074L442.38 60.4561ZM538.172 23.6299H516.243V83H510.838V23.6299H488.953V19.0156H538.172V23.6299ZM564.135 83H558.729V19.0156H564.135V83ZM609.829 75.0898L610.181 76.4521L610.576 75.0898L630.703 19.0156H636.636L612.817 83H607.632L583.813 19.0156H589.702L609.829 75.0898ZM686.285 65.0703H657.237L650.646 83H644.977L669.19 19.0156H674.332L698.546 83H692.921L686.285 65.0703ZM658.907 60.4561H684.571L671.739 25.6074L658.907 60.4561Z" fill="black"/>
<path d="M156.76 123.32C157.453 123.32 158.04 123.493 158.52 123.84C159 124.16 159.24 124.56 159.24 125.04C159.24 125.893 158.973 126.587 158.44 127.12C157.907 127.627 157.147 127.88 156.16 127.88C154.613 127.88 153.44 127.893 152.64 127.92C152.587 128.24 152.347 129.68 151.92 132.24C151.44 135.093 151.147 136.84 151.04 137.48L150.2 142.72C149.613 146.64 149.147 149.92 148.8 152.56C149.36 152.533 150.12 152.52 151.08 152.52C152.493 152.52 153.453 152.707 153.96 153.08C154.467 153.453 154.72 154.013 154.72 154.76C154.72 155.453 154.44 156.04 153.88 156.52C153.347 157 152.587 157.24 151.6 157.24C150.933 157.24 149.88 157.213 148.44 157.16C147.107 157.107 146.227 157.08 145.8 157.08C144.12 157.08 142.28 157.227 140.28 157.52C139.4 157.653 138.773 157.72 138.4 157.72C137.813 157.72 137.32 157.56 136.92 157.24C136.52 156.92 136.32 156.453 136.32 155.84C136.32 154.88 136.747 154.133 137.6 153.6C138.453 153.067 139.653 152.787 141.2 152.76L143.08 152.72L143.2 151.84C143.84 147.573 144.307 144.56 144.6 142.8L145.48 137.56C146.013 134.467 146.493 131.28 146.92 128L143.56 128.04C142.6 128.04 141.933 127.893 141.56 127.6C141.213 127.28 141.04 126.84 141.04 126.28C141.04 124.467 142.347 123.493 144.96 123.36C146.187 123.307 147.68 123.28 149.44 123.28L156.76 123.32ZM173.125 157.2C171.578 157.2 169.831 157.067 167.885 156.8C166.818 156.667 166.085 156.387 165.685 155.96C165.285 155.533 165.111 154.84 165.165 153.88C165.351 151.24 165.791 147.987 166.485 144.12C167.178 140.227 168.018 136.48 169.005 132.88C169.191 132.213 169.565 131.747 170.125 131.48C170.685 131.213 171.418 131.08 172.325 131.08C173.951 131.08 174.765 131.533 174.765 132.44C174.765 132.813 174.685 133.24 174.525 133.72C173.831 135.853 173.138 138.72 172.445 142.32C171.751 145.893 171.258 149.307 170.965 152.56C171.765 152.64 172.671 152.68 173.685 152.68C178.351 152.68 181.831 151.267 184.125 148.44C186.445 145.613 187.605 141.84 187.605 137.12C187.605 133.947 186.698 131.493 184.885 129.76C183.071 128.027 180.511 127.16 177.205 127.16C175.071 127.16 172.951 127.493 170.845 128.16C168.765 128.827 166.885 129.707 165.205 130.8C164.858 131.04 164.485 131.16 164.085 131.16C163.631 131.16 163.271 130.973 163.005 130.6C162.738 130.2 162.605 129.72 162.605 129.16C162.605 128.52 162.711 128 162.925 127.6C163.138 127.173 163.498 126.787 164.005 126.44C165.845 125.187 168.005 124.24 170.485 123.6C172.965 122.933 175.351 122.6 177.645 122.6C180.898 122.6 183.711 123.173 186.085 124.32C188.458 125.44 190.285 127.093 191.565 129.28C192.845 131.467 193.485 134.107 193.485 137.2C193.485 141.227 192.685 144.747 191.085 147.76C189.485 150.747 187.151 153.067 184.085 154.72C181.018 156.373 177.365 157.2 173.125 157.2ZM228.442 149.72C228.842 149.56 229.176 149.48 229.442 149.48C229.869 149.48 230.189 149.64 230.402 149.96C230.616 150.28 230.722 150.693 230.722 151.2C230.722 152 230.522 152.68 230.122 153.24C229.749 153.8 229.096 154.307 228.162 154.76C226.589 155.507 224.549 156.107 222.042 156.56C219.536 156.987 217.069 157.2 214.642 157.2C211.282 157.2 208.469 156.827 206.202 156.08C203.936 155.307 202.242 154.253 201.122 152.92C200.029 151.587 199.482 150.08 199.482 148.4C199.482 146.107 200.216 144.16 201.682 142.56C203.176 140.933 205.362 139.76 208.242 139.04C206.669 138.587 205.456 137.787 204.602 136.64C203.776 135.493 203.362 134.213 203.362 132.8C203.362 130.88 203.962 129.187 205.162 127.72C206.389 126.227 208.029 125.08 210.082 124.28C212.136 123.48 214.389 123.08 216.842 123.08C220.149 123.08 222.629 123.8 224.282 125.24C225.936 126.653 226.762 128.493 226.762 130.76C226.762 132.333 226.469 133.613 225.882 134.6C225.322 135.56 224.509 136.04 223.442 136.04C222.696 136.04 222.109 135.88 221.682 135.56C221.256 135.213 221.042 134.707 221.042 134.04C221.042 133.587 221.109 133.093 221.242 132.56C221.376 131.68 221.442 131.08 221.442 130.76C221.442 129.8 221.082 129.027 220.362 128.44C219.642 127.827 218.442 127.52 216.762 127.52C214.496 127.52 212.682 128 211.322 128.96C209.962 129.92 209.282 131.213 209.282 132.84C209.282 134.093 209.789 135.133 210.802 135.96C211.842 136.76 213.522 137.2 215.842 137.28C216.429 137.307 216.842 137.44 217.082 137.68C217.322 137.92 217.442 138.32 217.442 138.88C217.442 140.64 216.642 141.533 215.042 141.56C212.829 141.613 210.989 141.92 209.522 142.48C208.082 143.04 207.029 143.76 206.362 144.64C205.722 145.493 205.402 146.413 205.402 147.4C205.402 149.053 206.176 150.307 207.722 151.16C209.269 151.987 211.722 152.4 215.082 152.4C217.296 152.4 219.629 152.147 222.082 151.64C224.562 151.107 226.682 150.467 228.442 149.72ZM249.424 123.32C250.117 123.32 250.704 123.493 251.184 123.84C251.664 124.16 251.904 124.56 251.904 125.04C251.904 125.893 251.637 126.587 251.104 127.12C250.571 127.627 249.811 127.88 248.824 127.88C247.277 127.88 246.104 127.893 245.304 127.92C245.251 128.24 245.011 129.68 244.584 132.24C244.104 135.093 243.811 136.84 243.704 137.48L242.864 142.72C242.277 146.64 241.811 149.92 241.464 152.56C242.024 152.533 242.784 152.52 243.744 152.52C245.157 152.52 246.117 152.707 246.624 153.08C247.131 153.453 247.384 154.013 247.384 154.76C247.384 155.453 247.104 156.04 246.544 156.52C246.011 157 245.251 157.24 244.264 157.24C243.597 157.24 242.544 157.213 241.104 157.16C239.771 157.107 238.891 157.08 238.464 157.08C236.784 157.08 234.944 157.227 232.944 157.52C232.064 157.653 231.437 157.72 231.064 157.72C230.477 157.72 229.984 157.56 229.584 157.24C229.184 156.92 228.984 156.453 228.984 155.84C228.984 154.88 229.411 154.133 230.264 153.6C231.117 153.067 232.317 152.787 233.864 152.76L235.744 152.72L235.864 151.84C236.504 147.573 236.971 144.56 237.264 142.8L238.144 137.56C238.677 134.467 239.157 131.28 239.584 128L236.224 128.04C235.264 128.04 234.597 127.893 234.224 127.6C233.877 127.28 233.704 126.84 233.704 126.28C233.704 124.467 235.011 123.493 237.624 123.36C238.851 123.307 240.344 123.28 242.104 123.28L249.424 123.32ZM265.469 157.2C263.629 157.2 261.962 156.747 260.469 155.84C259.002 154.933 257.842 153.627 256.989 151.92C256.135 150.187 255.709 148.147 255.709 145.8C255.709 141.747 256.575 138 258.309 134.56C260.042 131.093 262.602 128.32 265.989 126.24C269.375 124.133 273.442 123.08 278.189 123.08C279.415 123.08 280.722 123.173 282.109 123.36C283.522 123.547 284.802 123.827 285.949 124.2C286.695 124.413 287.069 124.947 287.069 125.8C287.069 126.493 286.802 127.147 286.269 127.76C285.762 128.373 285.162 128.68 284.469 128.68C284.255 128.68 284.095 128.667 283.989 128.64C282.602 128.32 281.415 128.093 280.429 127.96C279.442 127.8 278.402 127.72 277.309 127.72C273.922 127.72 271.042 128.547 268.669 130.2C266.295 131.827 264.522 133.987 263.349 136.68C262.175 139.373 261.589 142.28 261.589 145.4C261.589 147.667 262.029 149.427 262.909 150.68C263.815 151.907 264.989 152.52 266.429 152.52C268.055 152.52 269.482 151.853 270.709 150.52C271.935 149.187 273.055 147.027 274.069 144.04C275.082 141.053 276.082 137 277.069 131.88C277.229 131.133 277.549 130.627 278.029 130.36C278.509 130.093 279.149 129.96 279.949 129.96C281.842 129.96 282.789 130.573 282.789 131.8C282.789 132.013 282.749 132.28 282.669 132.6C281.975 135.187 281.335 138.053 280.749 141.2C280.189 144.32 279.909 146.693 279.909 148.32C279.909 149.76 280.122 150.813 280.549 151.48C280.975 152.12 281.629 152.44 282.509 152.44C283.362 152.44 284.175 152.16 284.949 151.6C285.722 151.013 286.695 150.027 287.869 148.64C288.189 148.267 288.549 148.08 288.949 148.08C289.295 148.08 289.562 148.24 289.749 148.56C289.962 148.88 290.069 149.32 290.069 149.88C290.069 150.92 289.815 151.747 289.309 152.36C288.002 153.933 286.722 155.133 285.469 155.96C284.215 156.787 282.682 157.2 280.869 157.2C279.002 157.2 277.495 156.667 276.349 155.6C275.202 154.507 274.482 152.973 274.189 151C272.215 155.133 269.309 157.2 265.469 157.2ZM301.994 157.32C298.447 157.32 295.607 156.653 293.474 155.32C291.341 153.96 290.274 151.893 290.274 149.12C290.274 147.653 290.527 146.533 291.034 145.76C291.541 144.987 292.287 144.6 293.274 144.6C293.994 144.6 294.581 144.787 295.034 145.16C295.487 145.533 295.714 146.013 295.714 146.6C295.714 147.133 295.674 147.6 295.594 148C295.594 148.107 295.567 148.293 295.514 148.56C295.487 148.827 295.474 149.107 295.474 149.4C295.474 150.6 296.074 151.493 297.274 152.08C298.501 152.667 300.207 152.96 302.394 152.96C304.661 152.96 306.434 152.56 307.714 151.76C308.994 150.933 309.634 149.787 309.634 148.32C309.634 147.413 309.341 146.64 308.754 146C308.167 145.333 307.434 144.787 306.554 144.36C305.674 143.907 304.434 143.36 302.834 142.72C300.781 141.92 299.101 141.16 297.794 140.44C296.514 139.72 295.407 138.747 294.474 137.52C293.567 136.267 293.114 134.72 293.114 132.88C293.114 130.96 293.621 129.253 294.634 127.76C295.674 126.267 297.154 125.107 299.074 124.28C301.021 123.453 303.301 123.04 305.914 123.04C307.861 123.04 309.647 123.333 311.274 123.92C312.901 124.48 314.194 125.347 315.154 126.52C316.141 127.693 316.634 129.133 316.634 130.84C316.634 132.52 316.381 133.787 315.874 134.64C315.367 135.493 314.621 135.92 313.634 135.92C312.941 135.92 312.354 135.707 311.874 135.28C311.421 134.853 311.194 134.347 311.194 133.76C311.194 133.253 311.234 132.787 311.314 132.36C311.394 131.56 311.434 131.053 311.434 130.84C311.434 129.72 310.887 128.867 309.794 128.28C308.701 127.693 307.341 127.4 305.714 127.4C303.421 127.4 301.661 127.827 300.434 128.68C299.234 129.507 298.634 130.68 298.634 132.2C298.634 133.213 298.941 134.08 299.554 134.8C300.194 135.52 300.981 136.12 301.914 136.6C302.847 137.08 304.154 137.653 305.834 138.32C307.861 139.147 309.487 139.893 310.714 140.56C311.941 141.227 312.981 142.133 313.834 143.28C314.714 144.427 315.154 145.84 315.154 147.52C315.154 150.667 313.954 153.093 311.554 154.8C309.181 156.48 305.994 157.32 301.994 157.32ZM368.154 133.16C368.154 135.427 367.568 137.507 366.394 139.4C365.221 141.293 363.514 142.84 361.274 144.04C359.034 145.24 356.368 145.947 353.274 146.16L351.554 155.8C350.888 159.507 349.074 161.36 346.114 161.36C344.488 161.36 342.981 160.88 341.594 159.92C340.234 158.96 339.141 157.493 338.314 155.52C337.488 153.547 337.074 151.12 337.074 148.24C337.074 142.827 337.941 138.24 339.674 134.48C341.434 130.693 343.781 127.867 346.714 126C349.674 124.107 352.928 123.16 356.474 123.16C358.981 123.16 361.101 123.6 362.834 124.48C364.594 125.36 365.914 126.56 366.794 128.08C367.701 129.573 368.154 131.267 368.154 133.16ZM353.994 142.04C359.461 141.347 362.194 138.507 362.194 133.52C362.194 131.76 361.608 130.333 360.434 129.24C359.288 128.12 357.501 127.56 355.074 127.56C352.328 127.56 349.928 128.427 347.874 130.16C345.848 131.893 344.274 134.307 343.154 137.4C342.061 140.467 341.514 143.973 341.514 147.92C341.514 149.573 341.674 151.04 341.994 152.32C342.341 153.6 342.768 154.6 343.274 155.32C343.808 156.013 344.314 156.36 344.794 156.36C345.461 156.36 345.968 155.44 346.314 153.6L347.634 146.04C346.594 145.88 346.141 145.813 346.274 145.84C345.474 145.707 344.954 145.467 344.714 145.12C344.474 144.747 344.354 144.28 344.354 143.72C344.354 143.133 344.514 142.667 344.834 142.32C345.181 141.973 345.648 141.8 346.234 141.8C346.501 141.8 346.701 141.813 346.834 141.84C347.474 141.947 347.968 142.013 348.314 142.04C348.661 139.96 349.154 137.173 349.794 133.68C349.954 132.773 350.314 132.133 350.874 131.76C351.461 131.36 352.141 131.16 352.914 131.16C353.794 131.16 354.421 131.333 354.794 131.68C355.194 132 355.394 132.52 355.394 133.24C355.394 133.667 355.368 134.013 355.314 134.28L353.994 142.04ZM383.422 157.2C381.582 157.2 379.915 156.747 378.422 155.84C376.955 154.933 375.795 153.627 374.942 151.92C374.089 150.187 373.662 148.147 373.662 145.8C373.662 141.747 374.529 138 376.262 134.56C377.995 131.093 380.555 128.32 383.942 126.24C387.329 124.133 391.395 123.08 396.142 123.08C397.369 123.08 398.675 123.173 400.062 123.36C401.475 123.547 402.755 123.827 403.902 124.2C404.649 124.413 405.022 124.947 405.022 125.8C405.022 126.493 404.755 127.147 404.222 127.76C403.715 128.373 403.115 128.68 402.422 128.68C402.209 128.68 402.049 128.667 401.942 128.64C400.555 128.32 399.369 128.093 398.382 127.96C397.395 127.8 396.355 127.72 395.262 127.72C391.875 127.72 388.995 128.547 386.622 130.2C384.249 131.827 382.475 133.987 381.302 136.68C380.129 139.373 379.542 142.28 379.542 145.4C379.542 147.667 379.982 149.427 380.862 150.68C381.769 151.907 382.942 152.52 384.382 152.52C386.009 152.52 387.435 151.853 388.662 150.52C389.889 149.187 391.009 147.027 392.022 144.04C393.035 141.053 394.035 137 395.022 131.88C395.182 131.133 395.502 130.627 395.982 130.36C396.462 130.093 397.102 129.96 397.902 129.96C399.795 129.96 400.742 130.573 400.742 131.8C400.742 132.013 400.702 132.28 400.622 132.6C399.929 135.187 399.289 138.053 398.702 141.2C398.142 144.32 397.862 146.693 397.862 148.32C397.862 149.76 398.075 150.813 398.502 151.48C398.929 152.12 399.582 152.44 400.462 152.44C401.315 152.44 402.129 152.16 402.902 151.6C403.675 151.013 404.649 150.027 405.822 148.64C406.142 148.267 406.502 148.08 406.902 148.08C407.249 148.08 407.515 148.24 407.702 148.56C407.915 148.88 408.022 149.32 408.022 149.88C408.022 150.92 407.769 151.747 407.262 152.36C405.955 153.933 404.675 155.133 403.422 155.96C402.169 156.787 400.635 157.2 398.822 157.2C396.955 157.2 395.449 156.667 394.302 155.6C393.155 154.507 392.435 152.973 392.142 151C390.169 155.133 387.262 157.2 383.422 157.2ZM446.107 148.08C446.454 148.08 446.721 148.24 446.907 148.56C447.121 148.88 447.227 149.32 447.227 149.88C447.227 150.92 446.974 151.747 446.467 152.36C445.187 153.907 443.894 155.107 442.587 155.96C441.281 156.787 439.734 157.2 437.947 157.2C436.214 157.2 434.734 156.733 433.507 155.8C432.307 154.867 431.161 153.267 430.067 151C429.187 149.187 428.494 147.853 427.987 147C427.481 146.12 426.974 145.493 426.467 145.12C425.987 144.747 425.387 144.52 424.667 144.44C424.561 145 424.254 146.76 423.747 149.72C423.534 151.053 423.401 151.867 423.347 152.16C423.081 153.787 422.547 155.04 421.747 155.92C420.947 156.773 419.734 157.2 418.107 157.2C416.321 157.2 414.734 156.68 413.347 155.64C411.987 154.573 410.934 153.107 410.187 151.24C409.441 149.347 409.067 147.2 409.067 144.8C409.067 140.32 409.841 136.453 411.387 133.2C412.961 129.947 415.147 127.467 417.947 125.76C420.774 124.027 424.027 123.16 427.707 123.16C430.267 123.16 432.414 123.547 434.147 124.32C435.881 125.093 437.161 126.16 437.987 127.52C438.841 128.88 439.267 130.413 439.267 132.12C439.267 133.613 438.907 135.08 438.187 136.52C437.494 137.933 436.441 139.187 435.027 140.28C433.614 141.373 431.894 142.187 429.867 142.72C431.147 143.067 432.134 143.627 432.827 144.4C433.521 145.173 434.214 146.307 434.907 147.8C435.654 149.4 436.387 150.573 437.107 151.32C437.854 152.067 438.707 152.44 439.667 152.44C440.521 152.44 441.334 152.16 442.107 151.6C442.881 151.013 443.854 150.027 445.027 148.64C445.347 148.267 445.707 148.08 446.107 148.08ZM419.147 144.4C418.241 144.4 417.614 144.187 417.267 143.76C416.947 143.333 416.787 142.853 416.787 142.32C416.787 141.68 416.987 141.173 417.387 140.8C417.814 140.427 418.294 140.24 418.827 140.24H419.827C420.254 137.627 420.654 135.373 421.027 133.48C421.374 131.747 422.494 130.88 424.387 130.88C425.907 130.88 426.667 131.56 426.667 132.92C426.667 133.213 426.654 133.44 426.627 133.6L425.427 140.24C426.867 140.16 428.174 139.813 429.347 139.2C430.547 138.587 431.494 137.733 432.187 136.64C432.907 135.547 433.267 134.307 433.267 132.92C433.267 131.24 432.694 129.92 431.547 128.96C430.401 128 428.721 127.52 426.507 127.52C423.894 127.52 421.601 128.173 419.627 129.48C417.681 130.76 416.161 132.68 415.067 135.24C413.974 137.773 413.427 140.867 413.427 144.52C413.427 146.227 413.601 147.693 413.947 148.92C414.294 150.147 414.721 151.067 415.227 151.68C415.734 152.293 416.214 152.6 416.667 152.6C417.014 152.6 417.294 152.427 417.507 152.08C417.747 151.733 417.934 151.173 418.067 150.4L419.147 144.4ZM458.063 157.2C456.223 157.2 454.556 156.747 453.063 155.84C451.596 154.933 450.436 153.627 449.583 151.92C448.729 150.187 448.303 148.147 448.303 145.8C448.303 141.747 449.169 138 450.903 134.56C452.636 131.093 455.196 128.32 458.583 126.24C461.969 124.133 466.036 123.08 470.783 123.08C472.009 123.08 473.316 123.173 474.703 123.36C476.116 123.547 477.396 123.827 478.543 124.2C479.289 124.413 479.663 124.947 479.663 125.8C479.663 126.493 479.396 127.147 478.863 127.76C478.356 128.373 477.756 128.68 477.063 128.68C476.849 128.68 476.689 128.667 476.583 128.64C475.196 128.32 474.009 128.093 473.023 127.96C472.036 127.8 470.996 127.72 469.903 127.72C466.516 127.72 463.636 128.547 461.263 130.2C458.889 131.827 457.116 133.987 455.943 136.68C454.769 139.373 454.183 142.28 454.183 145.4C454.183 147.667 454.623 149.427 455.503 150.68C456.409 151.907 457.583 152.52 459.023 152.52C460.649 152.52 462.076 151.853 463.303 150.52C464.529 149.187 465.649 147.027 466.663 144.04C467.676 141.053 468.676 137 469.663 131.88C469.823 131.133 470.143 130.627 470.623 130.36C471.103 130.093 471.743 129.96 472.543 129.96C474.436 129.96 475.383 130.573 475.383 131.8C475.383 132.013 475.343 132.28 475.263 132.6C474.569 135.187 473.929 138.053 473.343 141.2C472.783 144.32 472.503 146.693 472.503 148.32C472.503 149.76 472.716 150.813 473.143 151.48C473.569 152.12 474.223 152.44 475.103 152.44C475.956 152.44 476.769 152.16 477.543 151.6C478.316 151.013 479.289 150.027 480.463 148.64C480.783 148.267 481.143 148.08 481.543 148.08C481.889 148.08 482.156 148.24 482.343 148.56C482.556 148.88 482.663 149.32 482.663 149.88C482.663 150.92 482.409 151.747 481.903 152.36C480.596 153.933 479.316 155.133 478.063 155.96C476.809 156.787 475.276 157.2 473.463 157.2C471.596 157.2 470.089 156.667 468.943 155.6C467.796 154.507 467.076 152.973 466.783 151C464.809 155.133 461.903 157.2 458.063 157.2ZM508.094 157.2C506.254 157.2 504.587 156.747 503.094 155.84C501.627 154.933 500.467 153.627 499.614 151.92C498.76 150.187 498.334 148.147 498.334 145.8C498.334 141.747 499.2 138 500.934 134.56C502.667 131.093 505.227 128.32 508.614 126.24C512 124.133 516.067 123.08 520.814 123.08C522.04 123.08 523.347 123.173 524.734 123.36C526.147 123.547 527.427 123.827 528.574 124.2C529.32 124.413 529.694 124.947 529.694 125.8C529.694 126.493 529.427 127.147 528.894 127.76C528.387 128.373 527.787 128.68 527.094 128.68C526.88 128.68 526.72 128.667 526.614 128.64C525.227 128.32 524.04 128.093 523.054 127.96C522.067 127.8 521.027 127.72 519.934 127.72C516.547 127.72 513.667 128.547 511.294 130.2C508.92 131.827 507.147 133.987 505.974 136.68C504.8 139.373 504.214 142.28 504.214 145.4C504.214 147.667 504.654 149.427 505.534 150.68C506.44 151.907 507.614 152.52 509.054 152.52C510.68 152.52 512.107 151.853 513.334 150.52C514.56 149.187 515.68 147.027 516.694 144.04C517.707 141.053 518.707 137 519.694 131.88C519.854 131.133 520.174 130.627 520.654 130.36C521.134 130.093 521.774 129.96 522.574 129.96C524.467 129.96 525.414 130.573 525.414 131.8C525.414 132.013 525.374 132.28 525.294 132.6C524.6 135.187 523.96 138.053 523.374 141.2C522.814 144.32 522.534 146.693 522.534 148.32C522.534 149.76 522.747 150.813 523.174 151.48C523.6 152.12 524.254 152.44 525.134 152.44C525.987 152.44 526.8 152.16 527.574 151.6C528.347 151.013 529.32 150.027 530.494 148.64C530.814 148.267 531.174 148.08 531.574 148.08C531.92 148.08 532.187 148.24 532.374 148.56C532.587 148.88 532.694 149.32 532.694 149.88C532.694 150.92 532.44 151.747 531.934 152.36C530.627 153.933 529.347 155.133 528.094 155.96C526.84 156.787 525.307 157.2 523.494 157.2C521.627 157.2 520.12 156.667 518.974 155.6C517.827 154.507 517.107 152.973 516.814 151C514.84 155.133 511.934 157.2 508.094 157.2ZM564.245 157.2C561.072 157.2 558.312 156.627 555.965 155.48C553.618 154.307 551.818 152.653 550.565 150.52C549.312 148.387 548.685 145.907 548.685 143.08C548.685 139.16 549.418 135.68 550.885 132.64C552.378 129.6 554.392 127.253 556.925 125.6C559.458 123.92 562.272 123.08 565.365 123.08C568.245 123.08 570.432 123.827 571.925 125.32C573.418 126.787 574.165 128.733 574.165 131.16C574.165 132.787 573.872 134.093 573.285 135.08C572.725 136.067 571.912 136.56 570.845 136.56C570.098 136.56 569.512 136.387 569.085 136.04C568.658 135.693 568.445 135.187 568.445 134.52C568.445 134.28 568.498 133.84 568.605 133.2C568.765 132.4 568.845 131.76 568.845 131.28C568.845 128.853 567.552 127.64 564.965 127.64C563.205 127.64 561.525 128.213 559.925 129.36C558.325 130.507 557.032 132.2 556.045 134.44C555.058 136.653 554.565 139.293 554.565 142.36C554.565 145.56 555.458 148.04 557.245 149.8C559.032 151.533 561.672 152.4 565.165 152.4C566.898 152.4 568.645 152.187 570.405 151.76C572.192 151.307 574.165 150.627 576.325 149.72C576.725 149.56 577.058 149.48 577.325 149.48C577.752 149.48 578.072 149.64 578.285 149.96C578.498 150.28 578.605 150.693 578.605 151.2C578.605 152.827 577.725 154.027 575.965 154.8C574.072 155.627 572.098 156.24 570.045 156.64C568.018 157.013 566.085 157.2 564.245 157.2ZM616.787 148.08C617.134 148.08 617.4 148.24 617.587 148.56C617.8 148.88 617.907 149.32 617.907 149.88C617.907 150.92 617.654 151.747 617.147 152.36C615.867 153.907 614.574 155.107 613.267 155.96C611.96 156.787 610.414 157.2 608.627 157.2C606.894 157.2 605.414 156.733 604.187 155.8C602.987 154.867 601.84 153.267 600.747 151C599.867 149.187 599.174 147.853 598.667 147C598.16 146.12 597.654 145.493 597.147 145.12C596.667 144.747 596.067 144.52 595.347 144.44C595.24 145 594.934 146.76 594.427 149.72C594.214 151.053 594.08 151.867 594.027 152.16C593.76 153.787 593.227 155.04 592.427 155.92C591.627 156.773 590.414 157.2 588.787 157.2C587 157.2 585.414 156.68 584.027 155.64C582.667 154.573 581.614 153.107 580.867 151.24C580.12 149.347 579.747 147.2 579.747 144.8C579.747 140.32 580.52 136.453 582.067 133.2C583.64 129.947 585.827 127.467 588.627 125.76C591.454 124.027 594.707 123.16 598.387 123.16C600.947 123.16 603.094 123.547 604.827 124.32C606.56 125.093 607.84 126.16 608.667 127.52C609.52 128.88 609.947 130.413 609.947 132.12C609.947 133.613 609.587 135.08 608.867 136.52C608.174 137.933 607.12 139.187 605.707 140.28C604.294 141.373 602.574 142.187 600.547 142.72C601.827 143.067 602.814 143.627 603.507 144.4C604.2 145.173 604.894 146.307 605.587 147.8C606.334 149.4 607.067 150.573 607.787 151.32C608.534 152.067 609.387 152.44 610.347 152.44C611.2 152.44 612.014 152.16 612.787 151.6C613.56 151.013 614.534 150.027 615.707 148.64C616.027 148.267 616.387 148.08 616.787 148.08ZM589.827 144.4C588.92 144.4 588.294 144.187 587.947 143.76C587.627 143.333 587.467 142.853 587.467 142.32C587.467 141.68 587.667 141.173 588.067 140.8C588.494 140.427 588.974 140.24 589.507 140.24H590.507C590.934 137.627 591.334 135.373 591.707 133.48C592.054 131.747 593.174 130.88 595.067 130.88C596.587 130.88 597.347 131.56 597.347 132.92C597.347 133.213 597.334 133.44 597.307 133.6L596.107 140.24C597.547 140.16 598.854 139.813 600.027 139.2C601.227 138.587 602.174 137.733 602.867 136.64C603.587 135.547 603.947 134.307 603.947 132.92C603.947 131.24 603.374 129.92 602.227 128.96C601.08 128 599.4 127.52 597.187 127.52C594.574 127.52 592.28 128.173 590.307 129.48C588.36 130.76 586.84 132.68 585.747 135.24C584.654 137.773 584.107 140.867 584.107 144.52C584.107 146.227 584.28 147.693 584.627 148.92C584.974 150.147 585.4 151.067 585.907 151.68C586.414 152.293 586.894 152.6 587.347 152.6C587.694 152.6 587.974 152.427 588.187 152.08C588.427 151.733 588.614 151.173 588.747 150.4L589.827 144.4ZM636.502 123.32C637.196 123.32 637.782 123.493 638.262 123.84C638.742 124.16 638.982 124.56 638.982 125.04C638.982 125.893 638.716 126.587 638.182 127.12C637.649 127.627 636.889 127.88 635.902 127.88C634.356 127.88 633.182 127.893 632.382 127.92C632.329 128.24 632.089 129.68 631.662 132.24C631.182 135.093 630.889 136.84 630.782 137.48L629.942 142.72C629.356 146.64 628.889 149.92 628.542 152.56C629.102 152.533 629.862 152.52 630.822 152.52C632.236 152.52 633.196 152.707 633.702 153.08C634.209 153.453 634.462 154.013 634.462 154.76C634.462 155.453 634.182 156.04 633.622 156.52C633.089 157 632.329 157.24 631.342 157.24C630.676 157.24 629.622 157.213 628.182 157.16C626.849 157.107 625.969 157.08 625.542 157.08C623.862 157.08 622.022 157.227 620.022 157.52C619.142 157.653 618.516 157.72 618.142 157.72C617.556 157.72 617.062 157.56 616.662 157.24C616.262 156.92 616.062 156.453 616.062 155.84C616.062 154.88 616.489 154.133 617.342 153.6C618.196 153.067 619.396 152.787 620.942 152.76L622.822 152.72L622.942 151.84C623.582 147.573 624.049 144.56 624.342 142.8L625.222 137.56C625.756 134.467 626.236 131.28 626.662 128L623.302 128.04C622.342 128.04 621.676 127.893 621.302 127.6C620.956 127.28 620.782 126.84 620.782 126.28C620.782 124.467 622.089 123.493 624.702 123.36C625.929 123.307 627.422 123.28 629.182 123.28L636.502 123.32ZM653.627 157.32C650.08 157.32 647.24 156.653 645.107 155.32C642.974 153.96 641.907 151.893 641.907 149.12C641.907 147.653 642.16 146.533 642.667 145.76C643.174 144.987 643.92 144.6 644.907 144.6C645.627 144.6 646.214 144.787 646.667 145.16C647.12 145.533 647.347 146.013 647.347 146.6C647.347 147.133 647.307 147.6 647.227 148C647.227 148.107 647.2 148.293 647.147 148.56C647.12 148.827 647.107 149.107 647.107 149.4C647.107 150.6 647.707 151.493 648.907 152.08C650.134 152.667 651.84 152.96 654.027 152.96C656.294 152.96 658.067 152.56 659.347 151.76C660.627 150.933 661.267 149.787 661.267 148.32C661.267 147.413 660.974 146.64 660.387 146C659.8 145.333 659.067 144.787 658.187 144.36C657.307 143.907 656.067 143.36 654.467 142.72C652.414 141.92 650.734 141.16 649.427 140.44C648.147 139.72 647.04 138.747 646.107 137.52C645.2 136.267 644.747 134.72 644.747 132.88C644.747 130.96 645.254 129.253 646.267 127.76C647.307 126.267 648.787 125.107 650.707 124.28C652.654 123.453 654.934 123.04 657.547 123.04C659.494 123.04 661.28 123.333 662.907 123.92C664.534 124.48 665.827 125.347 666.787 126.52C667.774 127.693 668.267 129.133 668.267 130.84C668.267 132.52 668.014 133.787 667.507 134.64C667 135.493 666.254 135.92 665.267 135.92C664.574 135.92 663.987 135.707 663.507 135.28C663.054 134.853 662.827 134.347 662.827 133.76C662.827 133.253 662.867 132.787 662.947 132.36C663.027 131.56 663.067 131.053 663.067 130.84C663.067 129.72 662.52 128.867 661.427 128.28C660.334 127.693 658.974 127.4 657.347 127.4C655.054 127.4 653.294 127.827 652.067 128.68C650.867 129.507 650.267 130.68 650.267 132.2C650.267 133.213 650.574 134.08 651.187 134.8C651.827 135.52 652.614 136.12 653.547 136.6C654.48 137.08 655.787 137.653 657.467 138.32C659.494 139.147 661.12 139.893 662.347 140.56C663.574 141.227 664.614 142.133 665.467 143.28C666.347 144.427 666.787 145.84 666.787 147.52C666.787 150.667 665.587 153.093 663.187 154.8C660.814 156.48 657.627 157.32 653.627 157.32ZM702.481 149.72C702.881 149.56 703.215 149.48 703.481 149.48C703.908 149.48 704.228 149.64 704.441 149.96C704.655 150.28 704.761 150.693 704.761 151.2C704.761 152 704.561 152.68 704.161 153.24C703.788 153.8 703.135 154.307 702.201 154.76C700.628 155.507 698.588 156.107 696.081 156.56C693.575 156.987 691.108 157.2 688.681 157.2C685.321 157.2 682.508 156.827 680.241 156.08C677.975 155.307 676.281 154.253 675.161 152.92C674.068 151.587 673.521 150.08 673.521 148.4C673.521 146.107 674.255 144.16 675.721 142.56C677.215 140.933 679.401 139.76 682.281 139.04C680.708 138.587 679.495 137.787 678.641 136.64C677.815 135.493 677.401 134.213 677.401 132.8C677.401 130.88 678.001 129.187 679.201 127.72C680.428 126.227 682.068 125.08 684.121 124.28C686.175 123.48 688.428 123.08 690.881 123.08C694.188 123.08 696.668 123.8 698.321 125.24C699.975 126.653 700.801 128.493 700.801 130.76C700.801 132.333 700.508 133.613 699.921 134.6C699.361 135.56 698.548 136.04 697.481 136.04C696.735 136.04 696.148 135.88 695.721 135.56C695.295 135.213 695.081 134.707 695.081 134.04C695.081 133.587 695.148 133.093 695.281 132.56C695.415 131.68 695.481 131.08 695.481 130.76C695.481 129.8 695.121 129.027 694.401 128.44C693.681 127.827 692.481 127.52 690.801 127.52C688.535 127.52 686.721 128 685.361 128.96C684.001 129.92 683.321 131.213 683.321 132.84C683.321 134.093 683.828 135.133 684.841 135.96C685.881 136.76 687.561 137.2 689.881 137.28C690.468 137.307 690.881 137.44 691.121 137.68C691.361 137.92 691.481 138.32 691.481 138.88C691.481 140.64 690.681 141.533 689.081 141.56C686.868 141.613 685.028 141.92 683.561 142.48C682.121 143.04 681.068 143.76 680.401 144.64C679.761 145.493 679.441 146.413 679.441 147.4C679.441 149.053 680.215 150.307 681.761 151.16C683.308 151.987 685.761 152.4 689.121 152.4C691.335 152.4 693.668 152.147 696.121 151.64C698.601 151.107 700.721 150.467 702.481 149.72Z" fill="#FF3384"/>
</svg>
